<svg width="20" height="22" viewBox="0 0 20 22" fill="none" xmlns="http://www.w3.org/2000/svg">
<path d="M7.03625 16.6775L7.55 14.885C7.60605 14.6859 7.72927 14.5123 7.89875 14.3937C15.9463 6.35019 15.5 6.73749 15.875 6.5375V2C15.8741 1.7019 15.7553 1.41626 15.5445 1.20547C15.3337 0.994675 15.0481 0.87587 14.75 0.875H1.25C0.951899 0.87587 0.666256 0.994675 0.455466 1.20547C0.244675 1.41626 0.12587 1.7019 0.125 2V20C0.125874 20.2981 0.244681 20.5837 0.45547 20.7945C0.666259 21.0053 0.9519 21.1241 1.25 21.125H14.75C15.0481 21.1241 15.3337 21.0053 15.5445 20.7945C15.7553 20.5837 15.8741 20.2981 15.875 20V14.5662L15.7438 14.6975C15.5293 14.9015 15.2447 15.0153 14.9487 15.0153C14.6528 15.0153 14.3682 14.9015 14.1537 14.6975C14.0623 14.6061 13.9875 14.4995 13.9325 14.3825L10.91 17.405C10.787 17.5791 10.6063 17.704 10.4 17.7575L8.62625 18.2675L8.4275 18.47C8.3231 18.5749 8.19906 18.6582 8.06247 18.7152C7.92587 18.7721 7.7794 18.8016 7.6314 18.802C7.48341 18.8023 7.3368 18.7735 7.19993 18.7172C7.06307 18.6609 6.93864 18.5782 6.83375 18.4738C6.62191 18.2629 6.5025 17.9765 6.5018 17.6777C6.50145 17.5297 6.53026 17.383 6.58657 17.2462C6.64288 17.1093 6.7256 16.9849 6.83 16.88L7.03625 16.6775ZM2.645 3.875H12.395C12.4938 3.87599 12.5882 3.91593 12.6578 3.98615C12.7273 4.05637 12.7663 4.15119 12.7663 4.25C12.7663 4.34881 12.7273 4.44363 12.6578 4.51385C12.5882 4.58407 12.4938 4.62401 12.395 4.625H2.645C2.54619 4.62401 2.45177 4.58407 2.38225 4.51385C2.31273 4.44363 2.27373 4.34881 2.27373 4.25C2.27373 4.15119 2.31273 4.05637 2.38225 3.98615C2.45177 3.91593 2.54619 3.87599 2.645 3.875ZM2.645 5.75H12.395C12.4938 5.75099 12.5882 5.79093 12.6578 5.86115C12.7273 5.93137 12.7663 6.02619 12.7663 6.125C12.7663 6.22381 12.7273 6.31863 12.6578 6.38885C12.5882 6.45907 12.4938 6.49901 12.395 6.5H2.645C2.54619 6.49901 2.45177 6.45907 2.38225 6.38885C2.31273 6.31863 2.27373 6.22381 2.27373 6.125C2.27373 6.02619 2.31273 5.93137 2.38225 5.86115C2.45177 5.79093 2.54619 5.75099 2.645 5.75ZM2.645 7.625H12.395C12.4938 7.62599 12.5882 7.66593 12.6578 7.73615C12.7273 7.80637 12.7663 7.90119 12.7663 8C12.7663 8.09881 12.7273 8.19363 12.6578 8.26385C12.5882 8.33407 12.4938 8.37401 12.395 8.375H2.645C2.54619 8.37401 2.45177 8.33407 2.38225 8.26385C2.31273 8.19363 2.27373 8.09881 2.27373 8C2.27373 7.90119 2.31273 7.80637 2.38225 7.73615C2.45177 7.66593 2.54619 7.62599 2.645 7.625ZM2.645 10.25C2.54619 10.249 2.45177 10.2091 2.38225 10.1388C2.31273 10.0686 2.27373 9.97381 2.27373 9.875C2.27373 9.77619 2.31273 9.68137 2.38225 9.61115C2.45177 9.54093 2.54619 9.50099 2.645 9.5H6.77C6.86881 9.50099 6.96323 9.54093 7.03275 9.61115C7.10227 9.68137 7.14127 9.77619 7.14127 9.875C7.14127 9.97381 7.10227 10.0686 7.03275 10.1388C6.96323 10.2091 6.86881 10.249 6.77 10.25H2.645Z" fill="#157633"/>
<path d="M8.21019 15.3013L10.0027 17.0938L8.23269 17.6L7.89519 17.9413C7.82439 18.011 7.7289 18.0499 7.62952 18.0496C7.53015 18.0492 7.43495 18.0095 7.36468 17.9393C7.29441 17.869 7.25477 17.7738 7.2544 17.6744C7.25402 17.5751 7.29295 17.4796 7.36269 17.4088L7.70394 17.0713L8.21019 15.3013Z" fill="#157633"/>
<path d="M16.1302 11.1238L15.8752 11.3788L10.6102 16.6438L8.66016 14.6938L14.1802 9.17383C14.8651 9.85875 14.371 9.3647 16.1302 11.1238Z" fill="#157633"/>
<path d="M18.9727 10.411L15.2152 14.1685C15.1444 14.2379 15.0491 14.2765 14.9499 14.2759C14.8508 14.2752 14.756 14.2354 14.6861 14.1651C14.6163 14.0947 14.5771 13.9996 14.5771 13.9005C14.5772 13.8013 14.6165 13.7063 14.6864 13.636L17.6564 10.666L17.1202 10.1335L16.6589 10.5948C16.2036 10.1395 15.1453 9.08121 14.7089 8.64476L15.9352 7.41851C16.1937 7.15992 16.5445 7.01465 16.9102 7.01465C17.2759 7.01465 17.6266 7.15992 17.8852 7.41851C18.1437 7.67709 18.289 8.02781 18.289 8.39351C18.289 8.7592 18.1437 9.10992 17.8852 9.36851L17.6527 9.60101L18.1852 10.1373L18.4402 9.87851C18.511 9.80905 18.6064 9.77037 18.7057 9.77086C18.8049 9.77136 18.8999 9.81099 18.97 9.88115C19.0402 9.95131 19.0798 10.0463 19.0803 10.1455C19.0808 10.2448 19.0421 10.3402 18.9727 10.411Z" fill="#157633"/>
</svg>
