<svg width="24" height="24" viewBox="0 0 24 24" fill="none" xmlns="http://www.w3.org/2000/svg">
<path d="M7.81686 1.19371L7.38183 0.852539C6.7507 1.40113 0.169645 6.29793 0 11.9162C4.69281e-05 15.9868 3.31129 19.2986 7.38183 19.2986C11.4524 19.2986 14.7641 15.9868 14.7641 11.9163C14.7641 6.70635 8.1003 1.41615 7.81686 1.19371ZM6.81119 9.82096C7.1195 10.0631 7.68358 10.2799 8.19416 10.4606C10.1499 11.0893 9.97719 13.9075 8.05056 14.5232V15.4505H6.64271V14.5978C6.10877 14.5633 5.39771 14.0752 4.89605 13.7371L5.66708 12.5587C6.232 12.9139 6.60048 13.2976 7.34194 13.2265C8.12039 13.2365 8.60717 12.1223 7.72539 11.7882C7.07539 11.5582 6.40995 11.2954 5.94255 10.9289C4.83528 10.0879 5.37406 8.15905 6.64271 7.74299V6.86262H8.05056V7.64209C8.80352 7.79667 9.13821 8.05703 9.69679 8.34461L9.02901 9.58398C8.47892 9.33723 7.99481 8.83421 7.14015 9.06021C6.82226 9.19274 6.63389 9.58172 6.81119 9.82096Z" fill="#157633"/>
<path d="M19.6567 12.4564L19.2222 12.1152C18.6704 12.6175 14.6267 15.4729 14.4443 19.2135C14.4444 21.8481 16.5876 23.9913 19.2222 23.9913C21.8567 23.9913 23.9999 21.8481 23.9999 19.2136C23.9999 15.9033 19.8341 12.5958 19.6567 12.4564Z" fill="#157633"/>
<path d="M17.7886 7.47266C19.4587 7.47266 20.8178 6.11362 20.8178 4.44345C20.6242 2.00418 18.4734 0.61417 17.7886 0.0078125C17.1093 0.60821 14.9494 2.00958 14.7593 4.44341C14.7594 6.11362 16.1184 7.47266 17.7886 7.47266Z" fill="#157633"/>
</svg>
