<svg width="24" height="24" viewBox="0 0 24 24" fill="none" xmlns="http://www.w3.org/2000/svg">
<path d="M19.5 0.0830078H4.33333C4.07374 0.0859967 3.82386 0.182107 3.62917 0.353841C4.40173 0.625651 5.08146 1.11083 5.58956 1.75315C6.09766 2.39546 6.41334 3.16862 6.5 3.98301C6.51656 4.12698 6.51656 4.27237 6.5 4.41634V22.833C6.49949 23.0402 6.55841 23.2432 6.66978 23.418C6.78115 23.5927 6.94029 23.7318 7.12833 23.8188C7.31682 23.9056 7.52626 23.9364 7.73175 23.9076C7.93724 23.8788 8.13014 23.7916 8.2875 23.6563L11.375 21.013L14.4625 23.6563C14.6587 23.8242 14.9085 23.9164 15.1667 23.9164C15.4249 23.9164 15.6746 23.8242 15.8708 23.6563L18.9583 21.013L22.0458 23.6563C22.2421 23.8242 22.4918 23.9164 22.75 23.9163C22.9067 23.9152 23.0616 23.8821 23.205 23.8188C23.393 23.7318 23.5522 23.5927 23.6636 23.418C23.7749 23.2432 23.8338 23.0402 23.8333 22.833V4.41634C23.8333 3.26707 23.3768 2.16487 22.5641 1.35221C21.7515 0.539554 20.6493 0.0830078 19.5 0.0830078ZM18.4167 15.2497H11.9167C11.6293 15.2497 11.3538 15.1355 11.1506 14.9324C10.9475 14.7292 10.8333 14.4537 10.8333 14.1663C10.8333 13.879 10.9475 13.6035 11.1506 13.4003C11.3538 13.1971 11.6293 13.083 11.9167 13.083H18.4167C18.704 13.083 18.9795 13.1971 19.1827 13.4003C19.3859 13.6035 19.5 13.879 19.5 14.1663C19.5 14.4537 19.3859 14.7292 19.1827 14.9324C18.9795 15.1355 18.704 15.2497 18.4167 15.2497ZM18.4167 10.9163H11.9167C11.6293 10.9163 11.3538 10.8022 11.1506 10.599C10.9475 10.3959 10.8333 10.1203 10.8333 9.83301C10.8333 9.54569 10.9475 9.27014 11.1506 9.06698C11.3538 8.86381 11.6293 8.74967 11.9167 8.74967H18.4167C18.704 8.74967 18.9795 8.86381 19.1827 9.06698C19.3859 9.27014 19.5 9.54569 19.5 9.83301C19.5 10.1203 19.3859 10.3959 19.1827 10.599C18.9795 10.8022 18.704 10.9163 18.4167 10.9163ZM18.4167 6.58301H11.9167C11.6293 6.58301 11.3538 6.46887 11.1506 6.26571C10.9475 6.06254 10.8333 5.78699 10.8333 5.49967C10.8333 5.21236 10.9475 4.93681 11.1506 4.73364C11.3538 4.53048 11.6293 4.41634 11.9167 4.41634H18.4167C18.704 4.41634 18.9795 4.53048 19.1827 4.73364C19.3859 4.93681 19.5 5.21236 19.5 5.49967C19.5 5.78699 19.3859 6.06254 19.1827 6.26571C18.9795 6.46887 18.704 6.58301 18.4167 6.58301ZM4.33333 4.41634V13.083H1.08333C0.796016 13.083 0.520465 12.9689 0.317301 12.7657C0.114137 12.5625 0 12.287 0 11.9997V4.41634C0 4.26467 0 4.12384 0 3.98301C0.0574636 3.40837 0.340847 2.8801 0.787808 2.5144C1.23477 2.14871 1.8087 1.97554 2.38333 2.03301C2.95797 2.09047 3.48624 2.37385 3.85194 2.82082C4.21763 3.26778 4.3908 3.84171 4.33333 4.41634Z" fill="#157633"/>
</svg>
