<svg width="28" height="36" viewBox="0 0 28 36" fill="none" xmlns="http://www.w3.org/2000/svg">
<path d="M27.2803 7.71975L19.7803 0.219727C19.6396 0.0791016 19.4492 0 19.25 0H3.49995C1.84543 0 0.5 1.34543 0.5 3.00002V33C0.5 34.6546 1.84543 36 3.50002 36H24.5C26.1546 36 27.5 34.6546 27.5 33V8.24998C27.5 8.05078 27.4209 7.86037 27.2803 7.71975ZM20 2.56057L24.9394 7.50002H21.5C20.6731 7.50002 20 6.82692 20 6.00005V2.56057ZM26 33C26 33.8269 25.3269 34.5 24.5 34.5H3.50002C2.67315 34.5 2.00005 33.8269 2.00005 33V3.00002C2.00005 2.17315 2.67315 1.50005 3.50002 1.50005H18.5V6.00005C18.5 7.65457 19.8454 9 21.5 9H26V33Z" fill="black"/>
<path d="M17.8239 22.0174C17.1296 21.471 16.4697 20.9092 16.0303 20.4698C15.459 19.8985 14.9499 19.3448 14.5076 18.8174C15.1976 16.6853 15.5 15.586 15.5 15C15.5 12.5105 14.6006 12 13.25 12C12.2239 12 11 12.5332 11 15.0718C11 16.191 11.6131 17.5496 12.8282 19.1287C12.5308 20.0362 12.1814 21.0828 11.7889 22.2627C11.5999 22.8289 11.3949 23.3533 11.178 23.8382C11.0015 23.9166 10.8301 23.9964 10.6646 24.0791C10.0684 24.3773 9.50225 24.6453 8.97709 24.8943C6.58203 26.0281 5 26.7781 5 28.2591C5 29.3343 6.16824 30 7.25 30C8.64451 30 10.7502 28.1374 12.2883 24.9997C13.885 24.3699 15.8699 23.9033 17.4365 23.6111C18.6919 24.5764 20.0784 25.5 20.75 25.5C22.6096 25.5 23 24.4248 23 23.5232C23 21.75 20.9741 21.75 20 21.75C19.6975 21.75 18.886 21.8394 17.8239 22.0174ZM7.25 28.5C6.82152 28.5 6.53148 28.2979 6.49998 28.2591C6.49998 27.7273 8.08566 26.9759 9.61939 26.2493C9.71677 26.2032 9.8157 26.157 9.91604 26.1094C8.78956 27.7428 7.67553 28.5 7.25 28.5ZM12.5 15.0718C12.5 13.5 12.9879 13.5 13.25 13.5C13.7803 13.5 14.0001 13.5 14.0001 15C14.0001 15.3164 13.7891 16.1074 13.4031 17.3423C12.8142 16.4356 12.5 15.6585 12.5 15.0718ZM13.075 23.1329C13.1219 23.0025 13.1673 22.8707 13.2112 22.7374C13.4895 21.9024 13.7401 21.1524 13.9634 20.4771C14.2747 20.8199 14.6102 21.1707 14.9698 21.5303C15.1104 21.6709 15.4591 21.9873 15.9235 22.3835C14.999 22.585 14.0154 22.8347 13.075 23.1329ZM21.5 23.5232C21.5 23.8602 21.5 24 20.8042 24.0045C20.5999 23.9605 20.1275 23.6822 19.5444 23.2852C19.7561 23.2618 19.9121 23.2501 20 23.2501C21.1082 23.2501 21.4224 23.3584 21.5 23.5232Z" fill="black"/>
</svg>
