<svg width="21" height="22" viewBox="0 0 21 22" fill="none" xmlns="http://www.w3.org/2000/svg">
<path d="M20.6375 9.825C20.75 9.6 20.75 9.2625 20.6375 8.925C20.525 8.8125 20.525 8.7 20.4125 8.5875L18.1625 6.3375C17.7125 5.8875 17.0375 5.8875 16.5875 6.3375C16.1375 6.7875 16.1375 7.4625 16.5875 7.9125L16.925 8.25H14C13.325 8.25 12.875 8.7 12.875 9.375C12.875 10.05 13.325 10.5 14 10.5H16.925L16.5875 10.8375C16.1375 11.2875 16.1375 11.9625 16.5875 12.4125C16.8125 12.6375 17.15 12.75 17.375 12.75C17.6 12.75 17.9375 12.6375 18.1625 12.4125L20.4125 10.1625C20.525 10.05 20.6375 9.9375 20.6375 9.825Z" fill="#157633"/>
<path d="M15.125 12.75C14.45 12.75 14 13.2 14 13.875V15C14 15.675 13.55 16.125 12.875 16.125H11.75V6.45C11.75 4.9875 10.85 3.75 9.6125 3.3L7.8125 2.625H12.875C13.55 2.625 14 3.075 14 3.75V4.875C14 5.55 14.45 6 15.125 6C15.8 6 16.25 5.55 16.25 4.875V3.75C16.25 1.8375 14.7875 0.375 12.875 0.375H1.625C1.5125 0.375 1.4 0.375 1.2875 0.4875C1.175 0.4875 1.0625 0.6 1.0625 0.6C1.0625 0.6 1.0625 0.6 0.95 0.7125C0.8375 0.7125 0.725 0.825 0.725 0.9375V1.05C0.6125 1.05 0.5 1.1625 0.5 1.275V1.3875V1.5V17.25C0.5 17.7 0.8375 18.15 1.175 18.2625L8.6 21.075C8.825 21.1875 9.1625 21.1875 9.3875 21.1875C9.8375 21.1875 10.2875 21.075 10.625 20.7375C11.1875 20.2875 11.6375 19.6125 11.6375 18.9375V18.375H12.7625C14.675 18.375 16.1375 16.9125 16.1375 15V13.875C16.25 13.3125 15.8 12.75 15.125 12.75Z" fill="#157633"/>
</svg>
