<svg width="18" height="22" viewBox="0 0 18 22" fill="none" xmlns="http://www.w3.org/2000/svg">
<path d="M4.78906 5.45703H13.2109C14.2771 5.45703 15.1445 4.58962 15.1445 3.52344V1.93359C15.1445 0.86741 14.2771 0 13.2109 0H4.78906C3.72288 0 2.85547 0.86741 2.85547 1.93359V3.52344C2.85547 4.58962 3.72288 5.45703 4.78906 5.45703Z" fill="#157633"/>
<path d="M16.4336 2.8916V3.52333C16.4336 5.3003 14.9879 6.74598 13.2109 6.74598H4.78906C3.01209 6.74598 1.56641 5.3003 1.56641 3.52333V2.8916C0.881312 3.48509 0.449219 4.36062 0.449219 5.32802V18.7772C0.449219 20.5542 1.8949 21.9999 3.67188 21.9999H14.3281C16.1051 21.9999 17.5508 20.5542 17.5508 18.7772V5.32802C17.5508 4.36062 17.1187 3.48509 16.4336 2.8916ZM6.08698 16.4647C6.29387 16.7544 6.2268 17.1569 5.93714 17.3639C5.82358 17.4449 5.6927 17.484 5.56306 17.484C5.36196 17.484 5.16384 17.3901 5.03802 17.214L4.70312 16.7452L4.36823 17.214C4.24241 17.3901 4.04429 17.484 3.84319 17.484C3.71351 17.484 3.58267 17.445 3.46911 17.3639C3.17945 17.157 3.11238 16.7544 3.31927 16.4647L3.91104 15.6363L3.31927 14.8078C3.11238 14.5181 3.17945 14.1156 3.46911 13.9087C3.75876 13.7018 4.16129 13.7688 4.36823 14.0585L4.70312 14.5273L5.03802 14.0584C5.24496 13.7688 5.64745 13.7017 5.93714 13.9086C6.2268 14.1155 6.29387 14.5181 6.08698 14.8077L5.49521 15.6362L6.08698 16.4647ZM6.74474 10.038L5.02599 12.0962C4.90276 12.2438 4.72104 12.3276 4.53134 12.3276C4.50659 12.3276 4.48179 12.3262 4.45687 12.3233C4.24104 12.2983 4.05232 12.1661 3.955 11.9718L3.2675 10.5996C3.10804 10.2814 3.23677 9.89413 3.555 9.73467C3.87327 9.57522 4.2605 9.70395 4.41996 10.0222L4.6669 10.515L5.75526 9.2117C5.98346 8.93846 6.38991 8.90198 6.6631 9.13011C6.93634 9.35831 6.97286 9.7648 6.74474 10.038ZM14.1562 16.3349H10.375C10.019 16.3349 9.73047 16.0464 9.73047 15.6904C9.73047 15.3344 10.019 15.0459 10.375 15.0459H14.1562C14.5122 15.0459 14.8008 15.3344 14.8008 15.6904C14.8008 16.0464 14.5122 16.3349 14.1562 16.3349ZM14.1562 11.2985H10.375C10.019 11.2985 9.73047 11.0099 9.73047 10.654C9.73047 10.298 10.019 10.0095 10.375 10.0095H14.1562C14.5122 10.0095 14.8008 10.298 14.8008 10.654C14.8008 11.0099 14.5122 11.2985 14.1562 11.2985Z" fill="#157633"/>
</svg>
