<svg width="18" height="20" viewBox="0 0 18 20" fill="none" xmlns="http://www.w3.org/2000/svg">
<path fill-rule="evenodd" clip-rule="evenodd" d="M17.0207 2.66634C17.0207 1.99809 16.7548 1.35642 16.2828 0.883425C15.8098 0.411341 15.1681 0.145508 14.4998 0.145508H3.49984C2.83159 0.145508 2.18992 0.411341 1.71692 0.883425C1.24484 1.35642 0.979004 1.99809 0.979004 2.66634V17.333C0.979004 18.0013 1.24484 18.6429 1.71692 19.1159C2.18992 19.588 2.83159 19.8538 3.49984 19.8538H14.4998C15.1681 19.8538 15.8098 19.588 16.2828 19.1159C16.7548 18.6429 17.0207 18.0013 17.0207 17.333V2.66634ZM4.4165 16.1872H13.5832C13.9627 16.1872 14.2707 15.8792 14.2707 15.4997C14.2707 15.1202 13.9627 14.8122 13.5832 14.8122H4.4165C4.037 14.8122 3.729 15.1202 3.729 15.4997C3.729 15.8792 4.037 16.1872 4.4165 16.1872ZM4.4165 12.5205H13.5832C13.9627 12.5205 14.2707 12.2125 14.2707 11.833C14.2707 11.4535 13.9627 11.1455 13.5832 11.1455H4.4165C4.037 11.1455 3.729 11.4535 3.729 11.833C3.729 12.2125 4.037 12.5205 4.4165 12.5205ZM6.479 3.81217V3.58301C6.479 3.20351 6.171 2.89551 5.7915 2.89551C5.412 2.89551 5.104 3.20351 5.104 3.58301V3.96617C4.56225 4.22376 4.18734 4.77651 4.18734 5.41634C4.18734 6.30184 4.906 7.02051 5.7915 7.02051C5.918 7.02051 6.02067 7.12317 6.02067 7.24967C6.02067 7.37617 5.918 7.47884 5.7915 7.47884H4.87484C4.49534 7.47884 4.18734 7.78684 4.18734 8.16634C4.18734 8.54584 4.49534 8.85384 4.87484 8.85384H5.104V9.08301C5.104 9.46251 5.412 9.77051 5.7915 9.77051C6.171 9.77051 6.479 9.46251 6.479 9.08301V8.69984C7.02075 8.44226 7.39567 7.88951 7.39567 7.24967C7.39567 6.36417 6.677 5.64551 5.7915 5.64551C5.665 5.64551 5.56234 5.54284 5.56234 5.41634C5.56234 5.28984 5.665 5.18717 5.7915 5.18717H6.70817C7.08767 5.18717 7.39567 4.87917 7.39567 4.49967C7.39567 4.12017 7.08767 3.81217 6.70817 3.81217H6.479ZM9.45817 8.85384H13.5832C13.9627 8.85384 14.2707 8.54584 14.2707 8.16634C14.2707 7.78684 13.9627 7.47884 13.5832 7.47884H9.45817C9.07867 7.47884 8.77067 7.78684 8.77067 8.16634C8.77067 8.54584 9.07867 8.85384 9.45817 8.85384ZM9.45817 5.18717H13.5832C13.9627 5.18717 14.2707 4.87917 14.2707 4.49967C14.2707 4.12017 13.9627 3.81217 13.5832 3.81217H9.45817C9.07867 3.81217 8.77067 4.12017 8.77067 4.49967C8.77067 4.87917 9.07867 5.18717 9.45817 5.18717Z" fill="#157633"/>
</svg>
