<svg width="29" height="29" viewBox="0 0 29 29" fill="none" xmlns="http://www.w3.org/2000/svg">
<path d="M8.47817 10.3079C8.00336 10.5259 7.47745 10.6469 6.92719 10.6469C5.17598 10.6469 3.64491 9.40411 3.28648 7.69206L4.94986 7.34403C5.14412 8.27307 5.97581 8.94767 6.92719 8.94767C7.8996 8.94767 8.73483 8.25559 8.91315 7.30199L10.4517 7.58962C10.9783 7.31195 11.5775 7.15398 12.2129 7.15398C12.7908 7.15398 13.3389 7.28452 13.8294 7.51705C13.8458 7.32169 13.8546 7.12521 13.8546 6.92719C13.8544 3.10749 10.7469 0 6.92719 0C3.10749 0 0 3.10749 0 6.92719C0 10.7469 3.10749 13.8544 6.92719 13.8544C7.43408 13.8544 7.93566 13.7986 8.42374 13.6907V10.9431C8.42374 10.7268 8.44299 10.5148 8.47817 10.3079ZM8.70562 4.39297C9.18198 4.39297 9.53465 4.78237 9.55523 5.24258C9.57581 5.70145 9.15012 6.09219 8.70562 6.09219C8.22926 6.09219 7.87659 5.703 7.85601 5.24258C7.83543 4.78392 8.26112 4.39297 8.70562 4.39297ZM5.0127 4.39297C5.48905 4.39297 5.84173 4.78237 5.8623 5.24258C5.88288 5.70145 5.45719 6.09219 5.0127 6.09219C4.53656 6.09219 4.18366 5.703 4.16309 5.24258C4.14273 4.78392 4.56842 4.39297 5.0127 4.39297Z" fill="#157633"/>
<path d="M17.4288 14.2035C17.156 14.2035 16.895 14.2553 16.6547 14.3484C16.2748 13.7426 15.6013 13.3388 14.8351 13.3388C14.6818 13.3388 14.532 13.3552 14.3877 13.386V10.9845C14.3877 9.80078 13.4248 8.83789 12.2411 8.83789C11.0574 8.83789 10.0945 9.80078 10.0945 10.9845V18.1369L10.0841 18.1267C9.72969 17.7818 9.26241 17.5891 8.76791 17.5838C8.15128 17.578 7.56252 17.8718 7.19834 18.3721C6.83416 18.8724 6.73393 19.5213 6.93019 20.108L7.66784 22.3122C8.06654 23.5043 8.70463 24.574 9.56397 25.4916L11.2185 27.2578V29.0002H19.9301V27.3342L22.1694 23.3784V18.0792C22.1694 16.8957 21.2065 15.9326 20.0228 15.9326C19.8582 15.9326 19.6982 15.952 19.5442 15.9872C19.3712 14.9759 18.4889 14.2035 17.4288 14.2035Z" fill="#157633"/>
<path d="M28.9999 6.92719C28.9999 3.10749 25.8924 0 22.0727 0C18.253 0 15.1455 3.10749 15.1455 6.92719C15.1455 7.50488 15.217 8.0662 15.3508 8.60318C15.5057 9.22379 15.7442 9.81166 16.0542 10.354C16.5188 11.1668 17.1434 11.8768 17.8846 12.4412C18.5807 12.9709 19.3792 13.3723 20.2452 13.6092C20.8275 13.7688 21.4401 13.8544 22.0727 13.8544C25.8924 13.8544 28.9999 10.7469 28.9999 6.92719ZM23.8735 4.18233C24.3498 4.18233 24.7025 4.57174 24.7231 5.03194C24.7437 5.49082 24.318 5.88155 23.8735 5.88155C23.3971 5.88155 23.0444 5.49237 23.0239 5.03194C23.0033 4.57307 23.429 4.18233 23.8735 4.18233ZM20.1808 4.18233C20.6569 4.18233 21.0096 4.57174 21.0304 5.03194C21.0507 5.49082 20.625 5.88155 20.1808 5.88155C19.7044 5.88155 19.3517 5.49237 19.3312 5.03194C19.3106 4.57307 19.7363 4.18233 20.1808 4.18233ZM20.121 9.91277L18.4508 9.60014C18.7796 7.84318 20.3173 6.56788 22.107 6.56788C23.8582 6.56788 25.3895 7.81043 25.7477 9.52248L24.0845 9.87074C23.8901 8.94147 23.0584 8.2671 22.107 8.2671C21.1348 8.2671 20.2996 8.95918 20.121 9.91277Z" fill="#157633"/>
</svg>
