<svg width="97" height="97" viewBox="0 0 97 97" fill="none" xmlns="http://www.w3.org/2000/svg">
<g clip-path="url(#clip0_20_6525)">
<path d="M76.8035 59.8682C74.2077 59.8682 72.0958 61.9713 72.0958 64.5564C72.0958 67.1415 74.2077 69.2444 76.8035 69.2444C79.3994 69.2444 81.5113 67.1413 81.5113 64.5564C81.5114 61.9713 79.3994 59.8682 76.8035 59.8682ZM76.8035 66.4026C75.7746 66.4026 74.9376 65.5743 74.9376 64.5564C74.9376 63.5383 75.7746 62.71 76.8035 62.71C77.8325 62.71 78.6695 63.5383 78.6695 64.5564C78.6697 65.5743 77.8325 66.4026 76.8035 66.4026Z" fill="white"/>
<path d="M73.6986 49.5076H75.3152C76.0999 49.5076 76.7361 48.8714 76.7361 48.0867C76.7361 47.302 76.0999 46.6658 75.3152 46.6658H73.6986C72.9139 46.6658 72.2777 47.302 72.2777 48.0867C72.2777 48.8714 72.9139 49.5076 73.6986 49.5076Z" fill="white"/>
<path d="M15.7239 59.8682C13.128 59.8682 11.0161 61.9713 11.0161 64.5564C11.0161 67.1415 13.128 69.2444 15.7239 69.2444C18.3197 69.2444 20.4316 67.1413 20.4316 64.5564C20.4316 61.9713 18.3195 59.8682 15.7239 59.8682ZM15.7239 66.4026C14.6949 66.4026 13.8579 65.5743 13.8579 64.5564C13.8579 63.5383 14.6949 62.71 15.7239 62.71C16.7528 62.71 17.5898 63.5383 17.5898 64.5564C17.5898 65.5743 16.7526 66.4026 15.7239 66.4026Z" fill="white"/>
<path d="M41.2068 59.8682C38.6109 59.8682 36.4991 61.9713 36.4991 64.5564C36.4991 67.1415 38.6109 69.2444 41.2068 69.2444C43.8027 69.2444 45.9145 67.1413 45.9145 64.5564C45.9147 61.9713 43.8027 59.8682 41.2068 59.8682ZM41.2068 66.4026C40.1779 66.4026 39.3409 65.5743 39.3409 64.5564C39.3409 63.5383 40.1779 62.71 41.2068 62.71C42.2357 62.71 43.0727 63.5383 43.0727 64.5564C43.0729 65.5743 42.2357 66.4026 41.2068 66.4026Z" fill="white"/>
<path d="M22.8054 35.0676C22.1205 35.0678 21.484 35.4077 21.1028 35.9772C18.4399 39.9544 17.0896 42.8085 17.0896 44.4601C17.0896 47.6119 19.6539 50.1761 22.8056 50.1761C25.9574 50.1761 28.5216 47.6119 28.5216 44.4601C28.5216 42.8083 27.1716 39.9542 24.5084 35.977C24.1269 35.4077 23.4903 35.0676 22.8054 35.0676ZM25.6796 44.4603C25.6796 46.0451 24.3902 47.3345 22.8054 47.3345C21.2206 47.3345 19.9312 46.0451 19.9312 44.4603C19.9312 43.7279 20.8262 41.6528 22.8054 38.5632C24.7846 41.6528 25.6796 43.7279 25.6796 44.4603Z" fill="white"/>
<path d="M48.5697 35.1516H41.207C40.4223 35.1516 39.7861 35.7878 39.7861 36.5725C39.7861 37.3572 40.4223 37.9934 41.207 37.9934H48.5697C49.3544 37.9934 49.9906 37.3572 49.9906 36.5725C49.9906 35.7878 49.3544 35.1516 48.5697 35.1516Z" fill="white"/>
<path d="M48.5697 41.201H41.207C40.4223 41.201 39.7861 41.8372 39.7861 42.6219C39.7861 43.4067 40.4223 44.0428 41.207 44.0428H48.5697C49.3544 44.0428 49.9906 43.4067 49.9906 42.6219C49.9906 41.8372 49.3544 41.201 48.5697 41.201Z" fill="white"/>
<path d="M48.5697 47.2506H41.207C40.4223 47.2506 39.7861 47.8868 39.7861 48.6715C39.7861 49.4562 40.4223 50.0924 41.207 50.0924H48.5697C49.3544 50.0924 49.9906 49.4562 49.9906 48.6715C49.9906 47.8868 49.3544 47.2506 48.5697 47.2506Z" fill="white"/>
<path d="M93.2784 57.3354C93.3165 57.1224 93.3386 56.9051 93.3386 56.6842V41.3444C93.3386 40.4549 92.9997 39.6115 92.3844 38.9692L82.3685 28.5175C81.7212 27.8419 80.8124 27.4545 79.875 27.4545H66.6072C65.8225 27.4545 65.1863 28.0906 65.1863 28.8754V32.1531C62.1556 29.1698 58.0541 27.4545 53.7151 27.4545H50.5721C49.7873 27.4545 49.1512 28.0906 49.1512 28.8754C49.1512 29.6601 49.7873 30.2963 50.5721 30.2963H53.7151C58.2114 30.2963 62.4007 32.5239 64.9214 36.2553C64.9972 36.3677 65.0874 36.4641 65.1863 36.5473V50.9809C65.1497 51.0249 65.1145 51.0707 65.0826 51.1202C62.579 55.0045 58.3294 57.3235 53.7149 57.3235H49.2978H49.1707C47.1964 55.1741 44.3574 53.8233 41.2068 53.8233C38.0564 53.8233 35.2174 55.1741 33.2431 57.3235H23.6875C21.7132 55.1741 18.8743 53.8233 15.7237 53.8233C13.6673 53.8233 11.7438 54.3992 10.1068 55.3963C6.05416 52.9573 3.5494 48.5487 3.5494 43.81C3.5494 36.3586 9.61153 30.2965 17.0629 30.2965H44.8883C45.673 30.2965 46.3092 29.6603 46.3092 28.8756C46.3092 28.0908 45.673 27.4547 44.8883 27.4547H32.8807V24.7784C32.8807 23.0868 31.5045 21.7108 29.8131 21.7108H21.9284C20.2368 21.7108 18.8608 23.087 18.8608 24.7784V27.4547H17.0631C8.04475 27.4547 0.707797 34.7916 0.707797 43.81C0.707797 49.2075 3.39292 54.2505 7.79656 57.2856C7.77932 57.3041 7.76095 57.3218 7.7439 57.3405C7.67531 57.3303 7.60579 57.3235 7.53436 57.3235H3.95957C1.77631 57.3235 0 59.0998 0 61.283V62.0175C0 64.2008 1.77612 65.9771 3.95957 65.9771H5.03206C5.73342 71.2257 10.2591 75.2893 15.7237 75.2893C21.1884 75.2893 25.7139 71.2257 26.4153 65.9771H30.5152C31.2166 71.2257 35.7422 75.2893 41.2068 75.2893C46.6716 75.2893 51.1972 71.2257 51.8984 65.9771H54.31C55.0947 65.9771 55.7309 65.3409 55.7309 64.5562C55.7309 63.7715 55.0947 63.1353 54.31 63.1353H51.8984C51.7588 62.0905 51.4678 61.0932 51.0478 60.1651H53.7149H66.9626C66.5424 61.0932 66.2516 62.0905 66.1119 63.1353H59.9936C59.2088 63.1353 58.5727 63.7715 58.5727 64.5562C58.5727 65.3409 59.2088 65.9771 59.9936 65.9771H66.1119C66.8133 71.2257 71.339 75.2893 76.8035 75.2893C82.2683 75.2893 86.794 71.2257 87.4951 65.9771H93.0404C95.2237 65.9771 97 64.2008 97 62.0175V61.283C97 59.1799 95.3508 57.4595 93.2784 57.3354ZM21.7024 24.7782C21.7024 24.6536 21.8038 24.5524 21.9283 24.5524H29.8129C29.9374 24.5524 30.0387 24.6538 30.0387 24.7782V27.4545H21.7024V24.7782ZM31.366 60.1651C30.9458 61.0932 30.655 62.0905 30.5154 63.1353H26.4154C26.2758 62.0905 25.985 61.0932 25.5648 60.1651H31.366ZM2.8418 62.0175V61.283C2.8418 60.6667 3.34309 60.1653 3.95957 60.1653H5.8829C5.46269 61.0934 5.17188 62.0907 5.03225 63.1355H3.95957C3.34309 63.1355 2.8418 62.634 2.8418 62.0175ZM15.7239 72.4477C11.3418 72.4477 7.77648 68.9076 7.77648 64.5564C7.77648 60.205 11.3416 56.6651 15.7239 56.6651C20.1059 56.6651 23.6712 60.2052 23.6712 64.5564C23.671 68.9076 20.1059 72.4477 15.7239 72.4477ZM41.2068 72.4477C36.8248 72.4477 33.2596 68.9076 33.2596 64.5564C33.2596 60.205 36.8248 56.6651 41.2068 56.6651C45.5889 56.6651 49.1542 60.2052 49.1542 64.5564C49.1542 68.9076 45.5891 72.4477 41.2068 72.4477ZM90.4966 51.098H88.8933C88.3323 51.098 87.8759 50.6416 87.8759 50.0809V49.8221C87.8759 49.2613 88.3323 48.8049 88.8933 48.8049H90.4966V51.098ZM90.4769 41.201H75.4359C75.2078 41.201 75.0223 41.0153 75.0223 40.7874V35.4933C75.0223 35.2652 75.2078 35.0798 75.4359 35.0798H84.7212L90.3324 40.9354C90.4044 41.0106 90.4523 41.1023 90.4769 41.201ZM65.1863 55.4733V57.3235H62.939C63.7375 56.7773 64.4902 56.1595 65.1863 55.4733ZM68.0281 57.3233V30.2963H79.875C80.0415 30.2963 80.2025 30.3645 80.3166 30.4836L81.9978 32.238H75.4359C73.6408 32.238 72.1805 33.6983 72.1805 35.4933V40.7874C72.1805 42.5825 73.6408 44.0428 75.4359 44.0428H90.4966V45.9629H88.8933C86.7654 45.9629 85.0341 47.6941 85.0341 49.8219V50.0807C85.0341 52.2086 86.7654 53.9396 88.8933 53.9396H90.4966V56.6841C90.4966 56.9034 90.4112 57.1099 90.256 57.2651C90.2373 57.2839 90.221 57.3038 90.2036 57.3233H84.7674C82.7931 55.1739 79.9541 53.8231 76.8035 53.8231C73.6531 53.8231 70.8142 55.1739 68.8399 57.3233H68.0281ZM76.8035 72.4477C72.4215 72.4477 68.8564 68.9076 68.8564 64.5564C68.8564 60.205 72.4215 56.6651 76.8035 56.6651C81.1856 56.6651 84.7509 60.2052 84.7509 64.5564C84.7509 68.9076 81.1858 72.4477 76.8035 72.4477ZM94.1582 62.0175C94.1582 62.6338 93.6567 63.1353 93.0404 63.1353H87.4953C87.3557 62.0905 87.0647 61.0932 86.6447 60.1651H93.0404C93.6567 60.1651 94.1582 60.6665 94.1582 61.2828V62.0175Z" fill="white"/>
</g>
<defs>
<clipPath id="clip0_20_6525">
<rect width="97" height="97" fill="white"/>
</clipPath>
</defs>
</svg>
