<svg width="45" height="45" viewBox="0 0 45 45" fill="none" xmlns="http://www.w3.org/2000/svg">
<g clip-path="url(#clip0_2_5000)">
<mask id="mask0_2_5000" style="mask-type:luminance" maskUnits="userSpaceOnUse" x="0" y="0" width="45" height="45">
<path d="M0 3.8147e-06H45V45H0V3.8147e-06Z" fill="white"/>
</mask>
<g mask="url(#mask0_2_5000)">
<path d="M36.8445 5.05704L36.8445 2.23145L31.7958 2.23144L31.7958 10.7467L29.8424 10.7467L34.3201 15.5071L38.7979 10.7467L36.8445 10.7467L36.8445 7.69376" stroke="black" stroke-width="0.743802" stroke-miterlimit="10" stroke-linecap="round" stroke-linejoin="round"/>
<path d="M18.1763 15.2817L22.6541 20.0421L27.1318 15.2817L25.1784 15.2817L25.1784 2.23145L20.1298 2.23144L20.1298 15.2817L18.1763 15.2817Z" stroke="black" stroke-width="0.743802" stroke-miterlimit="10" stroke-linecap="round" stroke-linejoin="round"/>
<path d="M13.5114 12.1592L13.5114 2.23145L8.46269 2.23144L8.46268 19.4778L6.50932 19.4778L10.987 24.2382L15.4648 19.4778L13.5114 19.4778L13.5114 14.7959" stroke="black" stroke-width="0.743802" stroke-miterlimit="10" stroke-linecap="round" stroke-linejoin="round"/>
<path d="M11.3223 33.6469C11.3223 27.3881 16.3961 22.3143 22.6549 22.3143C28.9137 22.3143 33.9875 27.3881 33.9875 33.6469C33.9875 39.9057 28.9137 44.9795 22.6549 44.9795C16.3961 44.9795 11.3223 39.9057 11.3223 33.6469Z" stroke="black" stroke-width="0.743802" stroke-miterlimit="10" stroke-linecap="round" stroke-linejoin="round"/>
<path d="M17.2727 27.71C18.6951 26.4197 20.5833 25.6335 22.6549 25.6335C27.0806 25.6335 30.6684 29.2212 30.6684 33.6468C30.6684 38.0725 27.0806 41.6602 22.6549 41.6602C18.2293 41.6602 14.6416 38.0725 14.6416 33.6468C14.6416 32.2639 14.9919 30.9626 15.6088 29.8272" stroke="black" stroke-width="0.743802" stroke-miterlimit="10" stroke-linecap="round" stroke-linejoin="round"/>
<path d="M7.52638 33.8828H3.66016" stroke="black" stroke-width="0.743802" stroke-miterlimit="10" stroke-linecap="round" stroke-linejoin="round"/>
<path d="M8.61919 39.6703L7.24414 40.209" stroke="black" stroke-width="0.743802" stroke-miterlimit="10" stroke-linecap="round" stroke-linejoin="round"/>
<path d="M8.61919 28.0957L7.24414 27.557" stroke="black" stroke-width="0.743802" stroke-miterlimit="10" stroke-linecap="round" stroke-linejoin="round"/>
<path d="M37.4746 33.8828H41.3408" stroke="black" stroke-width="0.743802" stroke-miterlimit="10" stroke-linecap="round" stroke-linejoin="round"/>
<path d="M36.3818 39.6703L37.7569 40.209" stroke="black" stroke-width="0.743802" stroke-miterlimit="10" stroke-linecap="round" stroke-linejoin="round"/>
<path d="M36.3818 28.0957L37.7569 27.557" stroke="black" stroke-width="0.743802" stroke-miterlimit="10" stroke-linecap="round" stroke-linejoin="round"/>
<path d="M22.5407 36.9336H21.1344L19.6043 34.4727L19.081 34.8482V36.9336H17.8425V31.0929H19.081V33.7655L19.5684 33.0784L21.1504 31.0929H22.5247L20.4872 33.6776L22.5407 36.9336ZM28.1217 33.9573C28.1217 34.9188 27.8474 35.6552 27.2987 36.1665C26.7528 36.6779 25.9631 36.9336 24.9297 36.9336H23.2757V31.0929H25.1095C26.0629 31.0929 26.8034 31.3445 27.3307 31.8479C27.858 32.3513 28.1217 33.0544 28.1217 33.9573ZM26.8353 33.9893C26.8353 32.7348 26.2813 32.1076 25.1734 32.1076H24.5142V35.9109H25.0455C26.2387 35.9109 26.8353 35.2703 26.8353 33.9893Z" fill="black"/>
</g>
</g>
<defs>
<clipPath id="clip0_2_5000">
<rect width="45" height="45" fill="white"/>
</clipPath>
</defs>
</svg>
