<svg width="18" height="18" viewBox="0 0 18 18" fill="none" xmlns="http://www.w3.org/2000/svg">
<g clip-path="url(#clip0_2_5259)">
<path d="M1.80255 3.68189C3.46935 1.50461 6.00385 0.255859 8.75612 0.255859C10.6911 0.255859 12.526 0.877508 14.0625 2.05369C14.6185 2.47933 15.1214 2.97149 15.5593 3.5147L15.9497 1.30326C15.9924 1.06142 16.2233 0.899682 16.4649 0.942667L17.6326 1.14876C17.7488 1.16927 17.852 1.23508 17.9196 1.33166C17.9873 1.42831 18.0137 1.54777 17.9932 1.66392L17.0656 6.91867C17.0275 7.13437 16.8399 7.28615 16.6282 7.28615C16.6025 7.28615 16.5765 7.2839 16.5504 7.27927L11.2955 6.35163C11.0537 6.30894 10.8923 6.07831 10.9349 5.83647L11.1411 4.66876C11.1616 4.55262 11.2274 4.44939 11.324 4.38174C11.4206 4.31409 11.5401 4.28771 11.6563 4.30817L13.846 4.69473C13.538 4.3307 13.1894 3.99862 12.8011 3.7014C11.6294 2.80453 10.2302 2.33051 8.75476 2.33051C6.65479 2.33051 4.72142 3.28288 3.4502 4.94333C2.36722 6.35797 1.90002 8.10974 2.13457 9.87585C2.36918 11.642 3.27749 13.2111 4.69219 14.294C5.86719 15.1935 7.26416 15.6689 8.73211 15.6689C9.02832 15.6689 9.32868 15.649 9.62483 15.6097C11.3909 15.3752 12.96 14.4669 14.043 13.0522C14.7022 12.1911 15.1452 11.1751 15.3242 10.114C15.3438 9.99775 15.4089 9.89399 15.505 9.82563C15.601 9.75727 15.7204 9.73 15.8367 9.7495L17.0059 9.94676C17.2481 9.98761 17.4112 10.2171 17.3704 10.4592C17.1355 11.8522 16.5547 13.185 15.6908 14.3135C14.2709 16.1683 12.2136 17.3592 9.89809 17.6668C9.5107 17.7182 9.11755 17.7443 8.72962 17.7443C6.80354 17.7443 4.97127 17.1209 3.43099 15.9418C1.57612 14.5219 0.385239 12.4647 0.0777054 10.1491C-0.230007 7.83345 0.38257 5.5367 1.80255 3.68189Z" fill="#231F20"/>
</g>
<defs>
<clipPath id="clip0_2_5259">
<rect width="18" height="18" fill="white" transform="matrix(-1 0 0 1 18 0)"/>
</clipPath>
</defs>
</svg>
