<svg width="88" height="88" viewBox="0 0 88 88" fill="none" xmlns="http://www.w3.org/2000/svg">
<g clip-path="url(#clip0_20_6409)">
<path d="M69.5312 69.6876C68.7904 69.1213 67.7317 69.2634 67.1657 70.0037C66.5997 70.7442 66.7413 71.8033 67.4817 72.3692L70.3655 74.5733C70.6704 74.8063 71.0309 74.9201 71.3895 74.9201C71.851 74.9201 72.3093 74.7314 72.6409 74.3654L78.153 68.2793C78.7785 67.5884 78.7259 66.5212 78.035 65.8957C77.3443 65.2701 76.277 65.3229 75.6514 66.0136L71.1816 70.9492L69.5312 69.6876Z" fill="white"/>
<path d="M87.4483 60.6797C87.4291 59.8192 86.7654 59.1115 85.9083 59.0365C81.894 58.6857 76.954 55.9891 73.3226 52.1671C73.0041 51.832 72.5621 51.6421 72.0997 51.6419C72.0995 51.6419 72.0994 51.6419 72.0992 51.6419C71.6372 51.6419 71.1952 51.8314 70.8766 52.1662C69.2467 53.8796 67.3546 55.3657 65.4022 56.5168C61.9763 52.6922 57.7595 49.8745 52.8174 48.1007C52.7743 48.0833 52.7308 48.0678 52.6862 48.054C52.3013 47.9176 51.9119 47.7875 51.5182 47.6637C55.6978 43.4952 58.5091 38.0173 58.5091 33.1031V30.4519C60.4848 29.5916 61.8705 27.6196 61.8705 25.3291C61.8705 22.9499 60.373 20.915 58.2715 20.1143C57.4042 11.6935 51.4714 4.61479 43.322 2.27288C43.0812 1.12589 42.0621 0.261719 40.8447 0.261719H34.7298C33.5556 0.261719 32.5686 1.06632 32.2837 2.15256C28.2751 3.22159 24.6136 5.50342 21.8683 8.67591C19.0819 11.896 17.3492 15.9173 16.9091 20.1151C14.8067 20.9163 13.3087 22.9508 13.3087 25.3293C13.3087 27.6206 14.6963 29.5931 16.6747 30.4529V33.1033C16.6747 38.0129 19.4866 43.4928 23.666 47.6642C23.2838 47.7843 22.9053 47.91 22.5312 48.042C22.4576 48.0629 22.3861 48.0887 22.3164 48.1193C16.7848 50.1148 12.1666 53.4179 8.54994 57.9793C5.07167 62.3665 2.59898 67.7842 1.20072 74.0833C0.703081 76.3344 0.328795 79.1633 1.86374 81.0746C3.36308 82.9415 6.04586 83.1807 8.21582 83.1807H19.2546C20.1866 83.1807 20.9421 82.4251 20.9421 81.4932C20.9421 80.5614 20.1866 79.8057 19.2546 79.8057H8.21582C6.19706 79.8057 4.94528 79.5216 4.49522 78.9612C4.01851 78.3675 4.01884 76.9714 4.49573 74.8131C6.24955 66.9136 10.5378 57.2468 20.8698 52.366C20.5521 58.0669 23.6411 61.7932 25.6045 64.1583C25.905 64.5204 26.3431 64.7405 26.813 64.7656C27.2827 64.7916 27.742 64.6185 28.0793 64.2904L37.5897 55.0416L47.1047 64.2907C47.4204 64.5975 47.8426 64.7681 48.2809 64.7681C48.3111 64.7681 48.3413 64.7673 48.3718 64.7656C48.8418 64.7403 49.28 64.5197 49.5804 64.1571C51.5411 61.79 54.6255 58.0615 54.3106 52.3726C57.3081 53.7945 59.9565 55.6962 62.2339 58.0651C60.874 58.5914 59.5368 58.9277 58.2899 59.0367C57.4333 59.1115 56.77 59.8187 56.7499 60.6785C56.6087 66.7118 57.6143 71.0343 60.3348 76.0936C60.3578 76.1365 61.2771 77.7845 62.7096 79.8061H34.532C33.6 79.8061 32.8445 80.5618 32.8445 81.4936C32.8445 82.4254 33.6 83.1811 34.532 83.1811H65.3897C67.4242 85.4295 69.8236 87.3431 72.099 87.3431C77.5888 87.3431 83.8028 76.2062 83.8626 76.0948C86.5788 71.0347 87.584 66.7128 87.4483 60.6797ZM54.827 19.7499H45.536C43.7807 15.1645 43.4486 11.3833 43.389 5.83265C49.4756 7.98539 53.9004 13.356 54.827 19.7499ZM35.5727 3.63671H40.0017C40.0123 10.1687 40.1778 14.5926 41.9462 19.7499H33.6315C35.3968 14.5924 35.5622 10.168 35.5727 3.63671ZM32.187 5.69951C32.1314 11.3233 31.8087 15.1277 30.0426 19.7501H20.356C21.3186 13.273 25.9747 7.75673 32.187 5.69951ZM18.8928 23.1249H30.1818C30.2812 23.2056 30.3774 23.2159 30.458 23.1249H56.2911C57.5066 23.1249 58.4955 24.1136 58.4955 25.3293C58.4955 26.5475 57.5068 27.5386 56.2911 27.5386H18.8928C17.6747 27.5386 16.6837 26.5475 16.6837 25.3293C16.6837 24.1138 17.6746 23.1249 18.8928 23.1249ZM20.0497 33.1033V30.9134H55.134V33.1033C55.134 39.537 48.901 47.4941 41.7953 50.1318C38.6861 51.2872 36.4787 51.2862 33.3622 50.1281C26.2705 47.4796 20.0497 39.5239 20.0497 33.1033ZM27.0532 60.5804C25.3066 58.3003 23.6249 55.3067 24.4332 50.9612C25.1775 50.7209 25.9467 50.5017 26.7442 50.3078C28.4459 51.5562 30.2812 52.5802 32.1838 53.2908C32.7962 53.5183 33.3855 53.7057 33.962 53.8617L27.0532 60.5804ZM48.129 60.5794L41.216 53.8596C41.785 53.7052 42.3665 53.5201 42.9703 53.2957C44.8824 52.5859 46.7267 51.5599 48.4363 50.3075C49.224 50.4992 49.9944 50.7164 50.746 50.9597C51.5561 55.2991 49.8751 58.2957 48.129 60.5794ZM80.8884 74.4994C78.8927 78.2239 74.2192 83.9678 72.099 83.9678C69.9789 83.9678 65.3054 78.2239 63.3085 74.4971C61.0785 70.3505 60.1634 66.8927 60.1138 62.1846C61.9342 61.8381 63.8295 61.1587 65.6931 60.21C65.7586 60.1815 65.8224 60.1479 65.885 60.1105C68.0612 58.9793 70.1895 57.4824 72.0984 55.7032C75.6924 59.0563 80.0679 61.421 84.083 62.1847C84.0298 66.8935 83.1149 70.3521 80.8884 74.4994Z" fill="white"/>
<path d="M26.8932 79.8057C25.9612 79.8057 25.2057 80.5613 25.2057 81.4932C25.2057 82.425 25.9612 83.1807 26.8932 83.1807H26.9029C27.8349 83.1807 28.5855 82.425 28.5855 81.4932C28.5855 80.5613 27.8252 79.8057 26.8932 79.8057Z" fill="white"/>
</g>
<defs>
<clipPath id="clip0_20_6409">
<rect width="87.0811" height="87.0811" fill="white" transform="translate(0.572632 0.261719)"/>
</clipPath>
</defs>
</svg>
