<svg width="50" height="42" viewBox="0 0 50 42" fill="none" xmlns="http://www.w3.org/2000/svg">
<path d="M40.614 13.0397C40.614 15.8101 38.254 16.3232 35.2784 16.3232C34.0471 16.3232 32.9184 16.2206 31.9949 15.9128C31.6871 14.4762 30.9688 13.0397 30.1479 11.8084C30.5584 9.85887 31.9949 7.7041 33.7392 6.88324C34.2523 7.19106 34.7653 7.39628 35.381 7.39628C35.9966 7.39628 36.5097 7.19106 37.0227 6.88324C39.0749 7.90932 40.614 10.7823 40.614 13.0397Z" stroke="white" stroke-width="2" stroke-miterlimit="10" stroke-linecap="round" stroke-linejoin="round"/>
<path d="M35.381 7.29368C37.0244 7.29368 38.3566 5.96144 38.3566 4.31804C38.3566 2.67464 37.0244 1.34241 35.381 1.34241C33.7376 1.34241 32.4053 2.67464 32.4053 4.31804C32.4053 5.96144 33.7376 7.29368 35.381 7.29368Z" stroke="white" stroke-width="2" stroke-miterlimit="10" stroke-linecap="round" stroke-linejoin="round"/>
<path d="M20.2975 11.8084C19.374 13.0397 18.6558 14.4762 18.348 15.9128C17.4245 16.2206 16.2958 16.3232 15.0645 16.3232C12.0889 16.3232 9.72888 15.7075 9.72888 13.0397C9.72888 10.885 11.268 7.90932 13.4228 6.88324C13.9358 7.19106 14.4489 7.39628 15.0645 7.39628C15.6802 7.39628 16.1932 7.19106 16.7062 6.88324C18.4506 7.7041 19.8871 9.85887 20.2975 11.8084Z" stroke="white" stroke-width="2" stroke-miterlimit="10" stroke-linecap="round" stroke-linejoin="round"/>
<path d="M15.1671 7.29368C16.8105 7.29368 18.1427 5.96144 18.1427 4.31804C18.1427 2.67464 16.8105 1.34241 15.1671 1.34241C13.5237 1.34241 12.1915 2.67464 12.1915 4.31804C12.1915 5.96144 13.5237 7.29368 15.1671 7.29368Z" stroke="white" stroke-width="2" stroke-miterlimit="10" stroke-linecap="round" stroke-linejoin="round"/>
<path d="M32.3027 17.5545C32.3027 21.1458 29.1219 21.9667 25.2228 21.9667C21.3237 21.9667 18.1428 21.1458 18.1428 17.5545C18.1428 14.5789 20.195 10.6798 23.068 9.34589C23.6837 9.75632 24.4019 9.96154 25.2228 9.96154C26.0436 9.96154 26.7619 9.75632 27.3776 9.34589C30.2506 10.6798 32.3027 14.5789 32.3027 17.5545Z" stroke="white" stroke-width="2" stroke-miterlimit="10" stroke-linecap="round" stroke-linejoin="round"/>
<path d="M25.2228 9.9615C27.4329 9.9615 29.2245 8.16987 29.2245 5.95978C29.2245 3.7497 27.4329 1.95807 25.2228 1.95807C23.0127 1.95807 21.2211 3.7497 21.2211 5.95978C21.2211 8.16987 23.0127 9.9615 25.2228 9.9615Z" stroke="white" stroke-width="2" stroke-miterlimit="10" stroke-linecap="round" stroke-linejoin="round"/>
<path d="M40.3061 26.9945L45.1287 23.198C45.7444 22.6849 45.9496 21.8641 45.5391 21.1458C45.0261 20.4275 44.1026 20.2223 43.3844 20.7354L38.4592 24.3267C36.9201 25.4553 35.894 27.0971 35.6888 29.0466L35.1757 33.4588" stroke="white" stroke-width="2" stroke-miterlimit="10" stroke-linecap="round" stroke-linejoin="round"/>
<path d="M43.3843 34.3822L43.4869 33.6639C43.5896 32.843 43.8974 32.1248 44.3078 31.5091L47.1808 27.61C48.72 25.5579 49.3356 22.8901 48.8226 20.3248L46.9756 11.1927C46.7704 10.2693 45.8469 9.75622 45.0261 10.064C44.4104 10.2693 44 10.8849 44 11.5006L44.1026 20.5301" stroke="white" stroke-width="2" stroke-miterlimit="10" stroke-linecap="round" stroke-linejoin="round"/>
<path d="M32.6484 33.3439L45.104 34.6458L44.5277 40.159L32.0721 38.8571L32.6484 33.3439Z" stroke="white" stroke-width="2" stroke-miterlimit="10" stroke-linecap="round" stroke-linejoin="round"/>
<path d="M10.1394 26.9945L5.31683 23.198C4.70119 22.6849 4.49597 21.8641 4.9064 21.1458C5.41944 20.4275 6.34292 20.2223 7.06117 20.7354L11.9864 24.3267C13.5255 25.4553 14.5516 27.0971 14.7568 29.0466L15.2698 33.4588" stroke="white" stroke-width="2" stroke-miterlimit="10" stroke-linecap="round" stroke-linejoin="round"/>
<path d="M7.06111 34.1769L6.9585 33.6639C6.8559 32.843 6.54807 32.1248 6.13764 31.5091L3.26461 27.61C1.72549 25.5579 1.10984 22.8901 1.62288 20.3249L3.46983 11.1927C3.67504 10.2693 4.59852 9.75622 5.41938 10.064C6.03503 10.2693 6.44546 10.8849 6.44546 11.5006L6.34286 20.5301" stroke="white" stroke-width="2" stroke-miterlimit="10" stroke-linecap="round" stroke-linejoin="round"/>
<path d="M18.3684 38.8509L5.91281 40.1528L5.33656 34.6397L17.7922 33.3378L18.3684 38.8509Z" stroke="white" stroke-width="2" stroke-miterlimit="10" stroke-linecap="round" stroke-linejoin="round"/>
</svg>
