<svg width="26" height="26" viewBox="0 0 26 26" fill="none" xmlns="http://www.w3.org/2000/svg">
<path d="M25.3118 4.26672L22.3398 1.29472C21.4208 0.375719 19.9318 0.375719 19.0128 1.29472L16.0398 4.26672C15.1208 5.18572 15.1208 6.67472 16.0398 7.59372L19.0118 10.5657C19.9308 11.4847 21.4198 11.4847 22.3388 10.5657L25.3108 7.59372C26.2298 6.67472 26.2298 5.18572 25.3118 4.26672ZM21.5758 8.27472C21.5758 8.77172 21.1728 9.17472 20.6758 9.17472C20.1788 9.17472 19.7758 8.77172 19.7758 8.27472V8.09472C19.7758 7.59772 20.1788 7.19472 20.6758 7.19472C21.1728 7.19472 21.5758 7.59772 21.5758 8.09472V8.27472ZM21.5758 5.71872C21.5758 6.21572 21.1728 6.61872 20.6758 6.61872C20.1788 6.61872 19.7758 6.21572 19.7758 5.71872V3.58572C19.7758 3.08872 20.1788 2.68572 20.6758 2.68572C21.1728 2.68572 21.5758 3.08872 21.5758 3.58572V5.71872Z" fill="#157633"/>
<path d="M20.676 12.7555C19.647 12.7555 18.679 12.3545 17.951 11.6265L14.979 8.65352C14.251 7.92652 13.851 6.95952 13.851 5.92952C13.851 5.69152 13.877 5.45852 13.919 5.22852H3.13C1.41 5.22952 0 6.62952 0 8.36952V19.4295C0 21.1495 1.41 22.5595 3.13 22.5595H7.87L10.34 25.0595C10.77 25.4995 11.5 25.4995 11.93 25.0595L14.4 22.5595H19.13C20.87 22.5595 22.27 21.1595 22.27 19.4295V12.3995C21.775 12.6265 21.237 12.7555 20.676 12.7555ZM6.339 15.2235C5.611 15.2235 5.021 14.6335 5.021 13.9055C5.021 13.1775 5.611 12.5875 6.339 12.5875C7.067 12.5875 7.657 13.1775 7.657 13.9055C7.657 14.6335 7.068 15.2235 6.339 15.2235ZM11.13 15.2235C10.402 15.2235 9.812 14.6335 9.812 13.9055C9.812 13.1775 10.402 12.5875 11.13 12.5875C11.858 12.5875 12.448 13.1775 12.448 13.9055C12.448 14.6335 11.858 15.2235 11.13 15.2235ZM15.92 15.2235C15.192 15.2235 14.602 14.6335 14.602 13.9055C14.602 13.1775 15.192 12.5875 15.92 12.5875C16.648 12.5875 17.238 13.1775 17.238 13.9055C17.238 14.6335 16.648 15.2235 15.92 15.2235Z" fill="#157633"/>
</svg>
