<svg width="19" height="23" viewBox="0 0 19 23" fill="none" xmlns="http://www.w3.org/2000/svg">
<path d="M0.706055 2.70605V4.059H2.059V6.76488H16.9413V4.059H18.2943V2.70605C17.2535 2.70605 1.7425 2.70605 0.706055 2.70605Z" fill="#157633"/>
<path d="M8.1472 1.35294V0H4.08838V1.35294H8.1472Z" fill="#157633"/>
<path d="M8.14746 13.5293C8.14746 14.2753 8.75439 14.8822 9.5004 14.8822C10.2464 14.8822 10.8533 14.2753 10.8533 13.5293C10.8533 13.1182 10.2171 12.1785 9.5004 11.3633C8.78379 12.1784 8.14746 13.1182 8.14746 13.5293Z" fill="#157633"/>
<path d="M16.9413 18.9414H2.059V21.6473H0.706055V23.0002H18.2943V21.6473H16.9413V18.9414Z" fill="#157633"/>
<path d="M16.9414 8.11719H2.05908V17.5878H16.9414V8.11719ZM9.50026 16.2348C8.00823 16.2348 6.79438 15.021 6.79438 13.529C6.79438 12.9008 7.1732 12.1108 7.95258 11.1136C8.47897 10.4401 8.99926 9.91646 9.02114 9.8945L9.50026 9.41385L9.97938 9.8945C10.0013 9.91646 10.5216 10.4402 11.0479 11.1136C11.8273 12.1108 12.2061 12.9008 12.2061 13.529C12.2061 15.021 10.9923 16.2348 9.50026 16.2348Z" fill="#157633"/>
</svg>
