<svg width="50" height="50" viewBox="0 0 50 50" fill="none" xmlns="http://www.w3.org/2000/svg">
<path d="M37.9648 10.5537H36.9873V9.47754C36.9873 8.21191 35.957 7.18164 34.6914 7.18164H33.9863C32.7207 7.18164 31.6904 8.21191 31.6904 9.47754V10.5537H18.2432V9.47754C18.2432 8.21191 17.2129 7.18164 15.9473 7.18164H15.2422C13.9766 7.18164 12.9463 8.21191 12.9463 9.47754V10.5537H12.0361C9.35449 10.5537 7.17285 12.7354 7.17285 15.417V37.9551C7.17285 40.6367 9.35449 42.8184 12.0361 42.8184H37.9648C40.6465 42.8184 42.8281 40.6367 42.8281 37.9551V15.417C42.8281 12.7354 40.6465 10.5537 37.9648 10.5537ZM32.8613 9.47754C32.8613 8.85742 33.3652 8.35352 33.9854 8.35352H34.6904C35.3106 8.35352 35.8145 8.85742 35.8145 9.47754V13.1426C35.8145 13.7627 35.3106 14.2666 34.6904 14.2666H33.9854C33.3652 14.2666 32.8613 13.7627 32.8613 13.1426V9.47754ZM14.1172 9.47754C14.1172 8.85742 14.6221 8.35352 15.2412 8.35352H15.9463C16.5664 8.35352 17.0703 8.85742 17.0703 9.47754V13.1426C17.0703 13.7627 16.5664 14.2666 15.9463 14.2666H15.2412C14.6211 14.2666 14.1172 13.7627 14.1172 13.1426V9.47754ZM12.0352 11.7256H12.9453V13.1416C12.9453 14.4072 13.9756 15.4375 15.2412 15.4375H15.9463C17.2119 15.4375 18.2422 14.4072 18.2422 13.1416V11.7256H31.6895V13.1416C31.6895 14.4072 32.7197 15.4375 33.9854 15.4375H34.6904C35.9561 15.4375 36.9863 14.4072 36.9863 13.1416V11.7256H37.9639C40 11.7256 41.6553 13.3818 41.6553 15.417V20.21H8.34375V15.417C8.34375 13.3809 10 11.7256 12.0352 11.7256ZM37.9648 41.6475H12.0352C9.99902 41.6475 8.34375 39.9912 8.34375 37.9561V21.3818H41.6562V37.9551C41.6562 39.9912 40 41.6465 37.9648 41.6465V41.6475Z" fill="black"/>
<path d="M19.002 24.3105H14.3379C14.0146 24.3105 13.752 24.5732 13.752 24.8965V29.5605C13.752 29.8838 14.0146 30.1465 14.3379 30.1465H19.002C19.3252 30.1465 19.5879 29.8838 19.5879 29.5605V24.8965C19.5879 24.5732 19.3252 24.3105 19.002 24.3105ZM18.416 28.9746H14.9238V25.4824H18.416V28.9746Z" fill="black"/>
<path d="M27.332 24.3105H22.668C22.3447 24.3105 22.082 24.5732 22.082 24.8965V29.5605C22.082 29.8838 22.3447 30.1465 22.668 30.1465H27.332C27.6553 30.1465 27.918 29.8838 27.918 29.5605V24.8965C27.918 24.5732 27.6553 24.3105 27.332 24.3105ZM26.7461 28.9746H23.2539V25.4824H26.7461V28.9746Z" fill="black"/>
<path d="M30.9531 30.1465H35.6172C35.9404 30.1465 36.2031 29.8838 36.2031 29.5605V24.8965C36.2031 24.5732 35.9404 24.3105 35.6172 24.3105H30.9531C30.6299 24.3105 30.3672 24.5732 30.3672 24.8965V29.5605C30.3672 29.8838 30.6299 30.1465 30.9531 30.1465ZM31.5391 25.4824H35.0313V28.9746H31.5391V25.4824Z" fill="black"/>
<path d="M19.002 31.9551H14.3379C14.0146 31.9551 13.752 32.2178 13.752 32.541V37.2051C13.752 37.5283 14.0146 37.791 14.3379 37.791H19.002C19.3252 37.791 19.5879 37.5283 19.5879 37.2051V32.541C19.5879 32.2178 19.3252 31.9551 19.002 31.9551ZM18.416 36.6191H14.9238V33.127H18.416V36.6191Z" fill="black"/>
<path d="M27.332 31.9551H22.668C22.3447 31.9551 22.082 32.2178 22.082 32.541V37.2051C22.082 37.5283 22.3447 37.791 22.668 37.791H27.332C27.6553 37.791 27.918 37.5283 27.918 37.2051V32.541C27.918 32.2178 27.6553 31.9551 27.332 31.9551ZM26.7461 36.6191H23.2539V33.127H26.7461V36.6191Z" fill="black"/>
<path d="M35.9924 32.7286L32.8088 35.8321L31.3566 34.4493C31.1222 34.2256 30.7512 34.2354 30.5285 34.4698C30.3058 34.7042 30.3146 35.0752 30.549 35.2979L32.4094 37.0704C32.5226 37.1778 32.6681 37.2325 32.8137 37.2325C32.9592 37.2325 33.1086 37.1768 33.2228 37.0665L36.8107 33.5684C37.0422 33.3428 37.0471 32.9717 36.8215 32.7403C36.5959 32.5088 36.2248 32.504 35.9933 32.7295L35.9924 32.7286Z" fill="black"/>
</svg>
